<svg width="406" height="235" viewBox="0 0 406 235" fill="none" xmlns="http://www.w3.org/2000/svg">
<path d="M173.39 174H17.3898C12.8826 173.995 8.56159 172.202 5.37457 169.015C2.18755 165.828 0.394844 161.507 0.389771 157V30C0.394844 25.4929 2.18755 21.1718 5.37457 17.9848C8.56159 14.7978 12.8826 13.0051 17.3898 13H173.39C177.897 13.0051 182.218 14.7978 185.405 17.9848C188.592 21.1718 190.385 25.4929 190.39 30V157C190.385 161.507 188.592 165.828 185.405 169.015C182.218 172.202 177.897 173.995 173.39 174V174ZM17.3898 15C13.4129 15.0045 9.60022 16.5863 6.78815 19.3984C3.97608 22.2104 2.39427 26.0231 2.38977 30V157C2.39427 160.977 3.97608 164.79 6.78815 167.602C9.60022 170.414 13.4129 171.996 17.3898 172H173.39C177.367 171.996 181.179 170.414 183.991 167.602C186.803 164.79 188.385 160.977 188.39 157V30C188.385 26.0231 186.803 22.2104 183.991 19.3984C181.179 16.5863 177.367 15.0045 173.39 15H17.3898Z" fill="#3F3D56"/>
<path d="M155.658 51.138H76.9271C76.2352 51.152 75.5637 50.9028 75.0485 50.4408C74.5332 49.9787 74.2126 49.3383 74.1515 48.6489C74.1323 48.2921 74.186 47.9351 74.3093 47.5997C74.4327 47.2643 74.623 46.9576 74.8688 46.6982C75.1147 46.4388 75.4107 46.2322 75.739 46.091C76.0673 45.9498 76.4209 45.877 76.7783 45.877H156.922C159.562 48.197 157.953 51.138 155.657 51.138L155.658 51.138Z" fill="#CCCCCC"/>
<path d="M155.658 64.948H76.9271C76.2352 64.962 75.5637 64.7129 75.0485 64.2508C74.5332 63.7888 74.2126 63.1483 74.1515 62.4589C74.1323 62.1021 74.186 61.7451 74.3093 61.4097C74.4327 61.0743 74.623 60.7676 74.8688 60.5082C75.1147 60.2488 75.4107 60.0422 75.739 59.901C76.0673 59.7598 76.4209 59.687 76.7783 59.687H156.922C159.562 62.007 157.953 64.948 155.657 64.948L155.658 64.948Z" fill="#CCCCCC"/>
<path d="M59.9072 72.811H35.8793C35.0947 72.8102 34.3425 72.4982 33.7878 71.9435C33.233 71.3887 32.921 70.6365 32.9202 69.852V41.497C32.921 40.7125 33.233 39.9603 33.7878 39.4055C34.3425 38.8508 35.0947 38.5388 35.8793 38.538H59.9072C60.6917 38.5391 61.4437 38.8511 61.9984 39.4058C62.5531 39.9605 62.8652 40.7125 62.8663 41.497V69.852C62.8655 70.6365 62.5535 71.3887 61.9987 71.9435C61.444 72.4982 60.6918 72.8102 59.9072 72.811V72.811Z" fill="#3F3D56"/>
<path d="M155.429 93.224H35.2711C34.5792 93.238 33.9077 92.9889 33.3925 92.5268C32.8772 92.0648 32.5567 91.4243 32.4955 90.735C32.4763 90.3781 32.53 90.0212 32.6533 89.6858C32.7767 89.3504 32.967 89.0436 33.2128 88.7842C33.4586 88.5248 33.7547 88.3182 34.083 88.1771C34.4113 88.0359 34.7649 87.9631 35.1223 87.9631H156.694C159.334 90.2831 157.725 93.2241 155.429 93.2241V93.224Z" fill="#CCCCCC"/>
<path d="M155.429 107.038H35.2711C34.5791 107.052 33.9077 106.803 33.3925 106.341C32.8772 105.879 32.5566 105.238 32.4955 104.549C32.4763 104.192 32.53 103.835 32.6533 103.5C32.7767 103.164 32.967 102.858 33.2128 102.598C33.4586 102.339 33.7547 102.132 34.083 101.991C34.4113 101.85 34.7649 101.777 35.1223 101.777H156.694C159.334 104.097 157.725 107.038 155.429 107.038V107.038Z" fill="#CCCCCC"/>
<path d="M155.429 120.843H35.2711C34.5791 120.857 33.9077 120.608 33.3925 120.146C32.8772 119.684 32.5566 119.043 32.4955 118.354C32.4763 117.997 32.53 117.64 32.6533 117.305C32.7767 116.969 32.967 116.663 33.2128 116.403C33.4586 116.144 33.7547 115.937 34.083 115.796C34.4113 115.655 34.7649 115.582 35.1223 115.582H156.694C159.334 117.902 157.725 120.843 155.429 120.843V120.843Z" fill="#CCCCCC"/>
<path d="M155.429 134.656H35.2711C34.5792 134.67 33.9077 134.421 33.3925 133.959C32.8772 133.497 32.5566 132.856 32.4955 132.167C32.4763 131.81 32.53 131.453 32.6533 131.118C32.7767 130.782 32.967 130.476 33.2128 130.216C33.4586 129.957 33.7547 129.75 34.083 129.609C34.4113 129.468 34.7649 129.395 35.1223 129.395H156.694C159.334 131.715 157.725 134.656 155.429 134.656V134.656Z" fill="#CCCCCC"/>
<path d="M155.429 148.462H35.2711C34.5791 148.476 33.9077 148.227 33.3925 147.765C32.8772 147.303 32.5566 146.662 32.4955 145.973C32.4763 145.616 32.53 145.259 32.6533 144.924C32.7767 144.588 32.967 144.282 33.2128 144.022C33.4586 143.763 33.7547 143.556 34.083 143.415C34.4113 143.274 34.7649 143.201 35.1223 143.201H156.694C159.334 145.521 157.725 148.462 155.429 148.462Z" fill="#CCCCCC"/>
<path d="M139.39 0C140.715 0.00151655 141.986 0.528787 142.924 1.46614C143.861 2.40349 144.388 3.67438 144.39 5V21C144.388 22.3256 143.861 23.5965 142.924 24.5339C141.986 25.4712 140.715 25.9985 139.39 26H51.3898C50.0642 25.9985 48.7932 25.4712 47.8559 24.5339C46.9185 23.5965 46.3913 22.3256 46.3898 21V5C46.3913 3.67438 46.9185 2.40349 47.8559 1.46614C48.7932 0.528787 50.0642 0.00151655 51.3898 0" fill="#F9A826"/>
<path d="M389 235H233C228.493 234.995 224.172 233.202 220.985 230.015C217.798 226.828 216.005 222.507 216 218V91C216.005 86.4929 217.798 82.1718 220.985 78.9848C224.172 75.7978 228.493 74.0051 233 74H389C393.507 74.0051 397.828 75.7978 401.015 78.9848C404.202 82.1718 405.995 86.4929 406 91V218C405.995 222.507 404.202 226.828 401.015 230.015C397.828 233.202 393.507 234.995 389 235ZM233 76C229.023 76.0045 225.21 77.5863 222.398 80.3984C219.586 83.2104 218.004 87.0231 218 91V218C218.004 221.977 219.586 225.79 222.398 228.602C225.21 231.414 229.023 232.996 233 233H389C392.977 232.996 396.79 231.414 399.602 228.602C402.414 225.79 403.996 221.977 404 218V91C403.996 87.0231 402.414 83.2104 399.602 80.3984C396.79 77.5863 392.977 76.0045 389 76H233Z" fill="#3F3D56"/>
<path d="M371.269 112.138H292.537C291.845 112.152 291.174 111.903 290.659 111.441C290.143 110.979 289.823 110.338 289.762 109.649C289.743 109.292 289.796 108.935 289.92 108.6C290.043 108.264 290.233 107.958 290.479 107.698C290.725 107.439 291.021 107.232 291.349 107.091C291.678 106.95 292.031 106.877 292.389 106.877H372.532C375.172 109.197 373.563 112.138 371.268 112.138H371.269Z" fill="#3F3D56"/>
<path d="M371.269 125.948H292.537C291.845 125.962 291.174 125.713 290.659 125.251C290.143 124.789 289.823 124.148 289.762 123.459C289.743 123.102 289.796 122.745 289.92 122.41C290.043 122.074 290.233 121.768 290.479 121.508C290.725 121.249 291.021 121.042 291.349 120.901C291.678 120.76 292.031 120.687 292.389 120.687H372.532C375.172 123.007 373.563 125.948 371.268 125.948H371.269Z" fill="#3F3D56"/>
<path d="M275.517 133.811H251.49C250.705 133.81 249.953 133.498 249.398 132.943C248.843 132.389 248.531 131.637 248.53 130.852V102.497C248.531 101.712 248.843 100.96 249.398 100.406C249.953 99.8508 250.705 99.5388 251.49 99.538H275.517C276.302 99.5391 277.054 99.8512 277.609 100.406C278.163 100.961 278.475 101.713 278.477 102.497V130.852C278.476 131.637 278.164 132.389 277.609 132.943C277.054 133.498 276.302 133.81 275.517 133.811V133.811Z" fill="#CCCCCC"/>
<path d="M370.517 210.811H346.49C345.705 210.81 344.953 210.498 344.398 209.943C343.843 209.389 343.531 208.637 343.53 207.852V191.497C343.531 190.712 343.843 189.96 344.398 189.406C344.953 188.851 345.705 188.539 346.49 188.538H370.517C371.302 188.539 372.054 188.851 372.609 189.406C373.163 189.961 373.475 190.713 373.477 191.497V207.852C373.476 208.637 373.164 209.389 372.609 209.943C372.054 210.498 371.302 210.81 370.517 210.811V210.811Z" fill="#3F3D56"/>
<path d="M371.04 154.224H250.881C250.189 154.238 249.518 153.989 249.003 153.527C248.487 153.065 248.167 152.424 248.106 151.735C248.087 151.378 248.14 151.021 248.264 150.686C248.387 150.35 248.577 150.044 248.823 149.784C249.069 149.525 249.365 149.318 249.693 149.177C250.022 149.036 250.375 148.963 250.732 148.963H372.304C374.944 151.283 373.335 154.224 371.04 154.224V154.224Z" fill="#CCCCCC"/>
<path d="M371.04 168.038H250.881C250.189 168.052 249.518 167.803 249.003 167.341C248.487 166.879 248.167 166.238 248.106 165.549C248.087 165.192 248.14 164.835 248.264 164.5C248.387 164.164 248.577 163.858 248.823 163.598C249.069 163.339 249.365 163.132 249.693 162.991C250.022 162.85 250.375 162.777 250.732 162.777H372.304C374.944 165.097 373.335 168.038 371.04 168.038V168.038Z" fill="#CCCCCC"/>
<path d="M371.04 181.843H250.881C250.189 181.857 249.518 181.608 249.003 181.146C248.487 180.684 248.167 180.043 248.106 179.354C248.087 178.997 248.14 178.64 248.264 178.305C248.387 177.969 248.577 177.663 248.823 177.403C249.069 177.144 249.365 176.937 249.693 176.796C250.022 176.655 250.375 176.582 250.732 176.582H372.304C374.944 178.902 373.335 181.843 371.04 181.843V181.843Z" fill="#CCCCCC"/>
<path d="M308.04 195.656H250.881C250.189 195.67 249.518 195.421 249.003 194.959C248.487 194.497 248.167 193.856 248.106 193.167C248.087 192.81 248.14 192.453 248.264 192.118C248.387 191.782 248.577 191.476 248.823 191.216C249.069 190.957 249.365 190.75 249.693 190.609C250.022 190.468 250.375 190.395 250.732 190.395H309.304C311.944 192.715 310.335 195.656 308.04 195.656V195.656Z" fill="#CCCCCC"/>
<path d="M308.04 209.462H250.881C250.189 209.476 249.518 209.227 249.003 208.765C248.487 208.303 248.167 207.662 248.106 206.973C248.087 206.616 248.14 206.259 248.264 205.924C248.387 205.588 248.577 205.282 248.823 205.022C249.069 204.763 249.365 204.556 249.693 204.415C250.022 204.274 250.375 204.201 250.732 204.201H309.304C311.944 206.521 310.335 209.462 308.04 209.462V209.462Z" fill="#CCCCCC"/>
<path d="M355 87H267C265.674 86.9985 264.403 86.4712 263.466 85.5338C262.529 84.5965 262.002 83.3256 262 82V66C262.002 64.6744 262.529 63.4035 263.466 62.4662C264.403 61.5288 265.674 61.0015 267 61H355C356.326 61.0015 357.597 61.5288 358.534 62.4662C359.471 63.4035 359.998 64.6744 360 66V82C359.998 83.3256 359.471 84.5965 358.534 85.5338C357.597 86.4712 356.326 86.9985 355 87Z" fill="#F9A826"/>
</svg>
